<svg width="31" height="31" viewBox="0 0 31 31" fill="none" xmlns="http://www.w3.org/2000/svg">
<path fill-rule="evenodd" clip-rule="evenodd" d="M11.3466 3.46311C12.6577 -0.223705 17.8716 -0.223704 19.1827 3.46311C19.4669 4.26215 20.3796 4.64023 21.1455 4.27614C24.6796 2.59624 28.3664 6.28306 26.6865 9.81711C26.3224 10.583 26.7005 11.4958 27.4995 11.7799C31.1864 13.091 31.1864 18.305 27.4995 19.6161C26.7005 19.9002 26.3224 20.813 26.6865 21.5789C28.3664 25.1129 24.6796 28.7997 21.1455 27.1199C20.3796 26.7558 19.4669 27.1338 19.1827 27.9329C17.8716 31.6197 12.6577 31.6197 11.3466 27.9329C11.0624 27.1338 10.1497 26.7558 9.38376 27.1199C5.84971 28.7997 2.1629 25.1129 3.84279 21.5789C4.20688 20.813 3.8288 19.9002 3.02976 19.6161C-0.657055 18.305 -0.657053 13.091 3.02976 11.7799C3.8288 11.4958 4.20688 10.583 3.84279 9.81711C2.16289 6.28306 5.84971 2.59625 9.38376 4.27614C10.1497 4.64022 11.0624 4.26215 11.3466 3.46311ZM16.6131 4.3769C16.1619 3.10806 14.3674 3.10806 13.9162 4.3769C13.0906 6.69865 10.4385 7.7972 8.21291 6.73929C6.99664 6.16114 5.7278 7.42999 6.30594 8.64626C7.36385 10.8718 6.2653 13.5239 3.94355 14.3496C2.67471 14.8008 2.67471 16.5952 3.94355 17.0464C6.2653 17.8721 7.36385 20.5242 6.30594 22.7497C5.7278 23.966 6.99664 25.2348 8.21291 24.6567C10.4385 23.5988 13.0906 24.6973 13.9162 27.0191C14.3674 28.2879 16.1619 28.2879 16.6131 27.0191C17.4387 24.6973 20.0908 23.5988 22.3164 24.6567C23.5327 25.2348 24.8015 23.966 24.2234 22.7497C23.1654 20.5242 24.264 17.8721 26.5857 17.0464C27.8546 16.5952 27.8546 14.8008 26.5857 14.3496C24.264 13.5239 23.1654 10.8718 24.2234 8.64626C24.8015 7.42999 23.5327 6.16115 22.3164 6.73929C20.0908 7.7972 17.4387 6.69865 16.6131 4.3769Z" fill="#48484A"/>
<path fill-rule="evenodd" clip-rule="evenodd" d="M15.2646 11.897C13.1654 11.897 11.4637 13.5987 11.4637 15.6979C11.4637 17.7971 13.1654 19.4989 15.2646 19.4989C17.3638 19.4989 19.0656 17.7971 19.0656 15.6979C19.0656 13.5987 17.3638 11.897 15.2646 11.897ZM8.73639 15.6979C8.73639 12.0925 11.6592 9.16968 15.2646 9.16968C18.8701 9.16968 21.7928 12.0925 21.7928 15.6979C21.7928 19.3033 18.8701 22.2261 15.2646 22.2261C11.6592 22.2261 8.73639 19.3033 8.73639 15.6979Z" fill="#48484A"/>
</svg>
