<?xml version="1.0" encoding="utf-8"?>
<!-- Generator: Adobe Illustrator 26.0.2, SVG Export Plug-In . SVG Version: 6.00 Build 0)  -->
<svg version="1.1" id="Layer_1" xmlns="http://www.w3.org/2000/svg" xmlns:xlink="http://www.w3.org/1999/xlink" x="0px" y="0px"
	 viewBox="0 0 16 16" style="enable-background:new 0 0 16 16;" xml:space="preserve">
<style type="text/css">
	.st0{fill:#48484A;}
</style>
<g>
	<path class="st0" d="M14.7,3H1.3C0.6,3,0,2.3,0,1.5S0.6,0,1.3,0h13.3C15.4,0,16,0.7,16,1.5S15.4,3,14.7,3z"/>
</g>
<g>
	<path class="st0" d="M8,6.4c0.4,0,0.8,0.2,1.1,0.5l6.4,6.4c0.6,0.6,0.6,1.6,0,2.2c-0.6,0.6-1.6,0.6-2.2,0L8,10.2l-5.4,5.4
		c-0.6,0.6-1.6,0.6-2.2,0c-0.6-0.6-0.6-1.6,0-2.2l6.5-6.5C7.2,6.5,7.6,6.4,8,6.4z"/>
</g>
</svg>
