<?xml version="1.0" encoding="utf-8"?>
<!-- Generator: Adobe Illustrator 26.0.2, SVG Export Plug-In . SVG Version: 6.00 Build 0)  -->
<svg version="1.1" id="layer" xmlns="http://www.w3.org/2000/svg" xmlns:xlink="http://www.w3.org/1999/xlink" x="0px" y="0px"
	 viewBox="0 0 21 21" style="enable-background:new 0 0 21 21;" xml:space="preserve">
<style type="text/css">
	.st0{fill:#48484A;}
</style>
<g>
	<path class="st0" d="M12.8,15.8H8.4v-0.5c0.1,0,0.2,0,0.3,0c0.1,0,0.2,0,0.3-0.1c0.1-0.1,0.2-0.1,0.3-0.2c0.1-0.1,0.1-0.2,0.1-0.4
		v-4c0-0.2,0-0.3-0.1-0.4C9.3,10,9.2,9.9,9.1,9.9C9,9.8,8.9,9.7,8.7,9.7C8.5,9.6,8.4,9.6,8.2,9.6V9.1l3.4-0.2L11.7,9v5.4
		c0,0.2,0,0.3,0.1,0.4c0.1,0.1,0.2,0.2,0.3,0.2c0.1,0,0.2,0.1,0.3,0.1s0.2,0.1,0.3,0.1V15.8z M11.8,6.5c0,0.3-0.1,0.6-0.4,0.9
		c-0.3,0.2-0.6,0.4-0.9,0.4c-0.4,0-0.7-0.1-1-0.4C9.2,7.1,9,6.8,9,6.5c0-0.3,0.1-0.6,0.4-0.9c0.3-0.2,0.6-0.4,1-0.4
		c0.4,0,0.7,0.1,1,0.4C11.6,5.8,11.8,6.1,11.8,6.5z"/>
</g>
<g>
	<path class="st0" d="M10.5,1.9c4.7,0,8.6,3.9,8.6,8.6s-3.9,8.6-8.6,8.6s-8.6-3.9-8.6-8.6S5.8,1.9,10.5,1.9 M10.5,0
		C4.7,0,0,4.7,0,10.5S4.7,21,10.5,21S21,16.3,21,10.5S16.3,0,10.5,0L10.5,0z"/>
</g>
</svg>
