<?xml version="1.0" encoding="utf-8"?>
<!-- Generator: Adobe Illustrator 26.0.2, SVG Export Plug-In . SVG Version: 6.00 Build 0)  -->
<svg version="1.1" id="Layer_1" xmlns="http://www.w3.org/2000/svg" xmlns:xlink="http://www.w3.org/1999/xlink" x="0px" y="0px"
	 viewBox="0 0 16 16" style="enable-background:new 0 0 16 16;" xml:space="preserve">
<style type="text/css">
	.st0{fill-rule:evenodd;clip-rule:evenodd;fill:#48484A;}
</style>
<g id="remove-button">
	<path id="right__x28_Stroke_x29_" class="st0" d="M15.5,0.5c0.6,0.6,0.6,1.6,0,2.3L2.7,15.5c-0.6,0.6-1.6,0.6-2.3,0
		c-0.6-0.6-0.6-1.6,0-2.3L13.3,0.5C13.9-0.2,14.9-0.2,15.5,0.5z"/>
	<path id="left__x28_Stroke_x29_" class="st0" d="M0.5,0.5c0.6-0.6,1.6-0.6,2.3,0l12.8,12.8c0.6,0.6,0.6,1.6,0,2.3
		c-0.6,0.6-1.6,0.6-2.3,0L0.5,2.7C-0.2,2.1-0.2,1.1,0.5,0.5z"/>
</g>
</svg>
