<?xml version="1.0" encoding="utf-8"?>
<!-- Generator: Adobe Illustrator 26.0.2, SVG Export Plug-In . SVG Version: 6.00 Build 0)  -->
<svg version="1.1" id="Layer_1" xmlns="http://www.w3.org/2000/svg" xmlns:xlink="http://www.w3.org/1999/xlink" x="0px" y="0px"
	 viewBox="0 0 16 16" style="enable-background:new 0 0 16 16;" xml:space="preserve">
<style type="text/css">
	.st0{fill-rule:evenodd;clip-rule:evenodd;fill:#48484A;}
</style>
<g>
	<path class="st0" d="M5.9,1.5c0.7-2,3.5-2,4.2,0c0.2,0.4,0.6,0.6,1,0.4C13,1,15,3,14.1,4.9c-0.2,0.4,0,0.9,0.4,1c2,0.7,2,3.5,0,4.2
		c-0.4,0.2-0.6,0.6-0.4,1c0.9,1.9-1.1,3.9-3,3c-0.4-0.2-0.9,0-1,0.4c-0.7,2-3.5,2-4.2,0c-0.2-0.4-0.6-0.6-1-0.4C3,15,1,13,1.9,11.1
		c0.2-0.4,0-0.9-0.4-1c-2-0.7-2-3.5,0-4.2c0.4-0.2,0.6-0.6,0.4-1C1,3,3,1,4.9,1.9C5.3,2.1,5.8,1.9,5.9,1.5z M8.7,2
		C8.5,1.3,7.5,1.3,7.3,2c-0.4,1.2-1.9,1.8-3,1.3c-0.6-0.3-1.3,0.4-1,1c0.6,1.2,0,2.6-1.3,3C1.3,7.5,1.3,8.5,2,8.7
		c1.2,0.4,1.8,1.9,1.3,3c-0.3,0.6,0.4,1.3,1,1c1.2-0.6,2.6,0,3,1.3c0.2,0.7,1.2,0.7,1.4,0c0.4-1.2,1.9-1.8,3-1.3
		c0.6,0.3,1.3-0.4,1-1c-0.6-1.2,0-2.6,1.3-3c0.7-0.2,0.7-1.2,0-1.4c-1.2-0.4-1.8-1.9-1.3-3c0.3-0.6-0.4-1.3-1-1
		C10.6,3.8,9.2,3.2,8.7,2z"/>
	<path class="st0" d="M8,6C6.9,6,6,6.9,6,8s0.9,2,2,2s2-0.9,2-2S9.1,6,8,6z M4.5,8c0-1.9,1.6-3.5,3.5-3.5c1.9,0,3.5,1.6,3.5,3.5
		S9.9,11.5,8,11.5C6.1,11.5,4.5,9.9,4.5,8z"/>
</g>
</svg>
