<?xml version="1.0" encoding="utf-8"?>
<!-- Generator: Adobe Illustrator 26.0.2, SVG Export Plug-In . SVG Version: 6.00 Build 0)  -->
<svg version="1.1" id="Layer_1" xmlns="http://www.w3.org/2000/svg" xmlns:xlink="http://www.w3.org/1999/xlink" x="0px" y="0px"
	 viewBox="0 0 21.6 16" style="enable-background:new 0 0 21.6 16;" xml:space="preserve">
<style type="text/css">
	.st0{fill:#48484A;}
	.st1{display:none;fill:#48484A;}
</style>
<g id="Â_xB0_C">
	<path class="st0" d="M3.5,6.8c-0.7,0-1.3-0.1-1.8-0.4C1.2,6.1,0.8,5.7,0.4,5.1C0.1,4.6,0,4,0,3.4s0.1-1.2,0.4-1.7
		c0.3-0.5,0.7-0.9,1.2-1.2C2.2,0.2,2.8,0,3.5,0s1.3,0.1,1.8,0.4c0.5,0.3,0.9,0.7,1.2,1.2c0.3,0.5,0.5,1.1,0.5,1.7S6.8,4.6,6.4,5.2
		C6.1,5.7,5.7,6.1,5.2,6.4C4.7,6.7,4.1,6.8,3.5,6.8z M3.5,5.3c0.5,0,0.9-0.2,1.3-0.5C5,4.4,5.2,3.9,5.2,3.4c0-0.5-0.2-0.9-0.5-1.3
		S4,1.6,3.5,1.6S2.5,1.7,2.2,2.1C1.9,2.4,1.7,2.9,1.7,3.4c0,0.5,0.2,1,0.5,1.3C2.5,5.1,2.9,5.3,3.5,5.3z"/>
	<path class="st0" d="M12.5,16c-1,0-1.5-0.5-1.5-1.5V1.5c0-1,0.5-1.5,1.5-1.5h7.8c0.8,0,1.2,0.4,1.2,1.1c0,0.8-0.4,1.2-1.2,1.2h-6.5
		v4.5h6c0.8,0,1.2,0.4,1.2,1.1c0,0.8-0.4,1.2-1.2,1.2h-6v5.4C13.9,15.5,13.5,16,12.5,16z"/>
	<path class="st1" d="M16.4,16c-1.6,0-3-0.3-4.2-1c-1.1-0.7-2-1.6-2.6-2.8C8.9,11,8.6,9.6,8.6,8s0.3-3,0.9-4.2S11,1.6,12.2,1
		c1.2-0.7,2.6-1,4.2-1c0.8,0,1.6,0.1,2.4,0.3s1.5,0.5,2.1,0.9c0.4,0.3,0.6,0.6,0.7,0.9c0.1,0.3,0,0.7-0.1,0.9
		c-0.2,0.3-0.4,0.5-0.7,0.6c-0.3,0.1-0.7,0-1.1-0.3c-0.5-0.3-0.9-0.5-1.5-0.6c-0.5-0.1-1.1-0.2-1.6-0.2c-1.6,0-2.8,0.5-3.6,1.4
		c-0.8,0.9-1.2,2.3-1.2,4s0.4,3.1,1.2,4.1c0.8,1,2,1.4,3.6,1.4c0.6,0,1.1-0.1,1.7-0.2c0.5-0.1,1.1-0.4,1.5-0.7
		c0.4-0.3,0.8-0.3,1.1-0.2c0.3,0.1,0.5,0.3,0.7,0.6c0.2,0.3,0.2,0.6,0.2,0.9c-0.1,0.3-0.3,0.6-0.6,0.9c-0.6,0.4-1.3,0.8-2.1,1
		C18,15.9,17.2,16,16.4,16z"/>
</g>
</svg>
