<svg width="14" height="14" viewBox="0 0 14 14" fill="none" xmlns="http://www.w3.org/2000/svg">
<path d="M12.9099 3.11089C13.4957 2.52511 13.4957 1.57536 12.9099 0.989572C12.3241 0.403785 11.3744 0.403785 10.7886 0.989572L12.9099 3.11089ZM0.889088 10.8891C0.303302 11.4749 0.303302 12.4246 0.889088 13.0104C1.47487 13.5962 2.42462 13.5962 3.01041 13.0104L0.889088 10.8891ZM10.7886 0.989572L0.889088 10.8891L3.01041 13.0104L12.9099 3.11089L10.7886 0.989572Z" fill="#48484A"/>
<path d="M3.01037 0.989572C2.42458 0.403785 1.47483 0.403785 0.889047 0.989572C0.30326 1.57536 0.30326 2.52511 0.889047 3.11089L3.01037 0.989572ZM10.7885 13.0104C11.3743 13.5962 12.3241 13.5962 12.9099 13.0104C13.4956 12.4246 13.4956 11.4749 12.9099 10.8891L10.7885 13.0104ZM0.889047 3.11089L10.7885 13.0104L12.9099 10.8891L3.01037 0.989572L0.889047 3.11089Z" fill="#48484A"/>
</svg>
